<svg width="154" height="38" viewBox="0 0 154 38" fill="none" xmlns="http://www.w3.org/2000/svg">
<path d="M70.2611 14.2563L66.1373 26.8204H62.5774L58.436 14.2563H61.6258L63.7523 21.8519L64.3867 24.3267L65.0035 21.89L67.1712 14.2563H70.2611Z" fill="white"/>
<path d="M76.7625 14.259C77.7815 14.2273 78.7908 14.4827 79.6925 15.0003C80.5063 15.4953 81.1638 16.2461 81.5792 17.1545C82.0158 18.2187 82.2414 19.3711 82.2414 20.5366C82.2414 21.7021 82.0158 22.8546 81.5792 23.9188C81.1637 24.8266 80.5061 25.5766 79.6925 26.0709C78.7809 26.5639 77.7767 26.8204 76.7587 26.8204C75.7408 26.8204 74.7366 26.5639 73.8249 26.0709C73.0053 25.5799 72.3421 24.8294 71.9231 23.9188C71.4866 22.8546 71.261 21.7021 71.261 20.5366C71.261 19.3711 71.4866 18.2187 71.9231 17.1545C72.342 16.2433 73.0052 15.4921 73.8249 15.0003C74.7296 14.4833 75.7411 14.228 76.7625 14.259ZM76.7625 16.754C76.2746 16.7364 75.7938 16.885 75.3871 17.1791C74.9909 17.4952 74.6943 17.9371 74.5381 18.4441C74.1532 19.8084 74.1532 21.267 74.5381 22.6313C74.6927 23.1419 74.9894 23.5876 75.3871 23.9065C75.7938 24.2006 76.2746 24.3492 76.7625 24.3316C77.2482 24.3501 77.7269 24.2013 78.1304 23.9065C78.5236 23.585 78.8166 23.1399 78.9699 22.6313C79.3548 21.267 79.3548 19.8084 78.9699 18.4441C78.815 17.9392 78.5221 17.4978 78.1304 17.1791C77.7269 16.8843 77.2482 16.7355 76.7625 16.754V16.754Z" fill="white"/>
<path d="M87.5032 24.2822H93.0663V26.8204H84.6199V14.2563H87.5107L87.5032 24.2822Z" fill="white"/>
<path d="M97.8339 14.2563V26.8204H94.911V14.2563H97.8339ZM103.687 19.2249V21.7631H96.3385V19.2249H103.687ZM105.047 14.2563V26.8204H102.116V14.2563H105.047Z" fill="white"/>
<path d="M118.561 26.8204H115.433L114.619 23.984H110.625L109.794 26.8204H106.736L110.837 14.2563H114.472L118.561 26.8204ZM111.19 21.7567H114.054L112.622 16.6803L111.19 21.7567Z" fill="white"/>
<path d="M123.138 24.2822H128.697V26.8204H120.25V14.2563H123.138V24.2822Z" fill="white"/>
<path d="M133.564 24.2822H139.678V26.8204H130.386V14.2563H133.564V24.2822Z" fill="white"/>
<path d="M153.502 26.8204H150.374L149.561 23.984H145.566L144.735 26.8204H141.677L145.778 14.2563H149.419L153.502 26.8204ZM146.132 21.7567H148.995L147.563 16.6803L146.132 21.7567Z" fill="white"/>
<path d="M23.8054 37.325H24.1304V37V20.4461V20.2909L24.0098 20.1934L1.20439 1.74731L0.675 1.31912V2V4.05336C0.675 5.39583 1.22236 6.67709 2.16678 7.42174L20.8198 22.6585V35.9898C20.8198 36.3396 20.9528 36.6777 21.1938 36.929C21.4352 37.1809 21.7657 37.325 22.1132 37.325H23.8054Z" fill="white" stroke="white" stroke-width="0.65"/>
<path d="M3.71141 15.1894L3.20894 14.8619V15.4617V16.478C3.20894 17.1113 3.44878 17.808 3.79317 18.4134C4.138 19.0195 4.61012 19.5734 5.11613 19.9054L5.1172 19.9061L14.3819 25.9328L14.3668 27.1991L14.3667 27.1991V27.203C14.3667 29.0448 15.5451 30.7448 16.8356 31.8613L17.3733 32.3265V31.6155V24.2712V24.0951L17.2257 23.999L3.71141 15.1894Z" fill="white" stroke="white" stroke-width="0.65"/>
<path d="M48.1226 15.1894L48.625 14.8619V15.4617V16.478C48.625 17.1113 48.3852 17.808 48.0408 18.4134C47.696 19.0195 47.2239 19.5734 46.7179 19.9054L46.7168 19.9061L37.4521 25.9328L37.4672 27.1991L37.4673 27.1991V27.203C37.4673 29.0448 36.2889 30.7448 34.9984 31.8613L34.4607 32.3265V31.6155V24.2712V24.0951L34.6082 23.999L48.1226 15.1894Z" fill="white" stroke="white" stroke-width="0.65"/>
<path d="M27.7037 37V37.325H28.0287H29.7209C30.0685 37.325 30.3989 37.1808 30.6403 36.929C30.8813 36.6777 31.0144 36.3396 31.0144 35.9898V22.658L49.6673 7.42192C50.6118 6.67725 51.1591 5.39594 51.1591 4.05343V2V1.31913L50.6297 1.74731L27.8243 20.1928L27.7037 20.2904V20.4455V37Z" fill="white" stroke="white" stroke-width="0.65"/>
</svg>
