<svg width="1030" height="863" viewBox="0 0 1030 863" fill="none" xmlns="http://www.w3.org/2000/svg">
<path d="M454.13 677.72V399.27L54 89V123.53C54 144.78 63.07 164.53 78 175.94L407.42 433.94V660.73C407.42 665.239 409.211 669.563 412.399 672.751C415.587 675.939 419.911 677.73 424.42 677.73L454.13 677.72Z" fill="white" stroke="white" stroke-width="3" stroke-miterlimit="10"/>
<path d="M102.88 314L343.7 466.81V594.28C321.33 575.45 301.7 547.37 301.7 517.75L302.01 492.67L134.23 386.46C118.14 376.22 102.88 351.09 102.88 331.71V314Z" fill="white" stroke="white" stroke-width="3" stroke-miterlimit="10"/>
<path d="M514.88 677.72V399.27L914.96 89V123.53C914.96 144.78 905.9 164.53 890.96 175.94L561.54 433.94V660.73C561.54 665.239 559.749 669.563 556.561 672.751C553.373 675.939 549.049 677.73 544.54 677.73L514.88 677.72Z" fill="white" stroke="white" stroke-width="3" stroke-miterlimit="10"/>
<path d="M862.66 311.27L623.66 469.55V597.02C646.03 578.18 665.66 550.11 665.66 520.49V498.02L831.88 385.57C848.01 375.37 862.66 348.37 862.66 328.98V311.27Z" fill="white" stroke="white" stroke-width="3" stroke-miterlimit="10"/>
</svg>
