<svg width="1440" height="108" viewBox="0 0 1440 108" fill="none" xmlns="http://www.w3.org/2000/svg">
<g clip-path="url(#clip0_424_2050)">
<path fill-rule="evenodd" clip-rule="evenodd" d="M-1107 -40.8157L-1042.5 -37.0504C-980.223 -33.2852 -853.445 -25.7547 -726.668 -21.9894C-597.666 -18.2242 -470.888 -18.2242 -344.111 -18.2242C-217.333 -18.2242 -90.5558 -18.2242 36.2216 8.13252C162.999 34.4892 292.001 87.2027 418.778 102.264C545.556 117.325 672.333 94.7332 799.111 75.9069C925.888 57.0807 1052.67 42.0197 1181.67 42.0197C1308.44 42.0197 1435.22 57.0807 1497.5 64.6112L1562 72.1417V-40.8157H1497.5C1435.22 -40.8157 1308.44 -40.8157 1181.67 -40.8157C1052.67 -40.8157 925.888 -40.8157 799.111 -40.8157C672.333 -40.8157 545.556 -40.8157 418.778 -40.8157C292.001 -40.8157 162.999 -40.8157 36.2216 -40.8157C-90.5558 -40.8157 -217.333 -40.8157 -344.111 -40.8157C-470.888 -40.8157 -597.666 -40.8157 -726.668 -40.8157C-853.445 -40.8157 -980.223 -40.8157 -1042.5 -40.8157H-1107Z" fill="#24098F"/>
</g>
<defs>
<clipPath id="clip0_424_2050">
<rect width="1440" height="108" fill="white"/>
</clipPath>
</defs>
</svg>
