<svg width="1440" height="162" viewBox="0 0 1440 162" fill="none" xmlns="http://www.w3.org/2000/svg">
<g clip-path="url(#clip0_424_2032)">
<rect width="1440" height="162" fill="white"/>
<path fill-rule="evenodd" clip-rule="evenodd" d="M-171 -30.8403L97.25 21.7218C365.5 74.2839 902 179.408 1438.5 156.881C1975 134.355 2511.5 -15.8226 3048 -23.3314C3584.5 -30.8403 4121 104.319 4657.5 111.828C5194 119.337 5730.5 -0.804815 5998.75 -60.8758L6267 -120.947V-166H5998.75C5730.5 -166 5194 -166 4657.5 -166C4121 -166 3584.5 -166 3048 -166C2511.5 -166 1975 -166 1438.5 -166C902 -166 365.5 -166 97.25 -166H-171V-30.8403Z" fill="url(#paint0_linear_424_2032)"/>
</g>
<defs>
<linearGradient id="paint0_linear_424_2032" x1="1305.5" y1="-98.999" x2="3048" y2="160.001" gradientUnits="userSpaceOnUse">
<stop stop-color="#24098F"/>
<stop offset="1" stop-color="#24098F" stop-opacity="0"/>
</linearGradient>
<clipPath id="clip0_424_2032">
<rect width="1440" height="162" fill="white"/>
</clipPath>
</defs>
</svg>
