<svg width="1440" height="98" viewBox="0 0 1440 98" fill="none" xmlns="http://www.w3.org/2000/svg">
<g clip-path="url(#clip0_424_2050)">
<path fill-rule="evenodd" clip-rule="evenodd" d="M-689.406 340.085L-575.567 282.466C-461.728 224.846 -234.051 109.608 -3.91344 59.4381C226.224 9.26828 458.823 24.1673 691.645 44.9817C924.468 65.796 1157.51 92.5257 1388.99 77.848C1620.47 63.1703 1850.39 7.08518 1965.35 -20.9574L2080.3 -49L2091.04 234.937L1975.19 239.318C1859.34 243.699 1627.63 252.461 1395.93 261.224C1164.22 269.986 932.521 278.748 700.817 287.511C469.113 296.273 237.409 305.036 5.70571 313.798C-225.998 322.56 -457.702 331.323 -573.554 335.704L-689.406 340.085Z" fill="url(#paint0_linear_424_2050)" fill-opacity="0.8"/>
<path fill-rule="evenodd" clip-rule="evenodd" d="M-840.939 276.491L-724.916 223.406C-608.894 170.321 -376.85 64.1499 -144.913 23.0944C87.0247 -17.9612 318.855 6.09853 550.675 36.0778C782.496 66.057 1014.31 101.956 1246.19 96.4177C1478.06 90.8796 1710.01 43.9045 1825.98 20.4169L1941.96 -3.07065L1941.49 281.069L1825.56 280.878C1709.62 280.687 1477.75 280.306 1245.88 279.924C1014.01 279.543 782.145 279.161 550.276 278.78C318.407 278.399 86.5378 278.017 -145.331 277.636C-377.2 277.254 -609.07 276.873 -725.004 276.682L-840.939 276.491Z" fill="#24098F"/>
</g>
<defs>
<linearGradient id="paint0_linear_424_2050" x1="1733.42" y1="60.5472" x2="-90.8746" y2="95.1843" gradientUnits="userSpaceOnUse">
<stop offset="0.290597" stop-color="#5A31FF"/>
<stop offset="0.51794" stop-color="#41C7E4"/>
</linearGradient>
<clipPath id="clip0_424_2050">
<rect width="1440" height="98" fill="white"/>
</clipPath>
</defs>
</svg>
