<svg width="95" height="13" viewBox="0 0 95 13" fill="none" xmlns="http://www.w3.org/2000/svg">
<path d="M11.825 0L7.70125 12.5641H4.14141L0 0H3.18977L5.31628 7.59557L5.9507 10.0703L6.56751 7.63364L8.73514 0H11.825Z" fill="white"/>
<path d="M18.3265 0.00262573C19.3455 -0.0290491 20.3548 0.226308 21.2565 0.743954C22.0702 1.239 22.7278 1.98977 23.1432 2.89812C23.5797 3.96237 23.8053 5.11479 23.8053 6.2803C23.8053 7.4458 23.5797 8.59822 23.1432 9.66248C22.7277 10.5702 22.0701 11.3203 21.2565 11.8146C20.3448 12.3076 19.3407 12.5641 18.3227 12.5641C17.3047 12.5641 16.3006 12.3076 15.3889 11.8146C14.5693 11.3235 13.906 10.573 13.4871 9.66248C13.0506 8.59822 12.825 7.4458 12.825 6.2803C12.825 5.11479 13.0506 3.96237 13.4871 2.89812C13.9059 1.98697 14.5691 1.23576 15.3889 0.743954C16.2935 0.226941 17.3051 -0.0283341 18.3265 0.00262573ZM18.3265 2.49768C17.8385 2.48009 17.3577 2.6287 16.9511 2.92276C16.5549 3.2389 16.2583 3.68079 16.1021 4.18774C15.7172 5.55203 15.7172 7.01063 16.1021 8.37491C16.2567 8.88556 16.5534 9.33123 16.9511 9.65016C17.3577 9.94422 17.8385 10.0928 18.3265 10.0752C18.8122 10.0937 19.2908 9.94498 19.6943 9.65016C20.0875 9.32866 20.3806 8.88353 20.5339 8.37491C20.9188 7.01063 20.9188 5.55203 20.5339 4.18774C20.379 3.68282 20.0861 3.24145 19.6943 2.92276C19.2908 2.62794 18.8122 2.47918 18.3265 2.49768V2.49768Z" fill="white"/>
<path d="M29.0672 10.0259H34.6303V12.5641H26.1838V0H29.0746L29.0672 10.0259Z" fill="white"/>
<path d="M39.398 0V12.5641H36.4751V0H39.398ZM45.2514 4.96853V7.50673H37.9026V4.96853H45.2514ZM46.6108 0V12.5641H43.6804V0H46.6108Z" fill="white"/>
<path d="M60.1251 12.5641H56.9965L56.1834 9.72766H52.1887L51.3579 12.5641H48.3L52.4008 0H56.0361L60.1251 12.5641ZM52.7543 7.50039H55.6178L54.1861 2.42398L52.7543 7.50039Z" fill="white"/>
<path d="M64.7025 10.0259H70.2607V12.5641H61.8142V0H64.7025V10.0259Z" fill="white"/>
<path d="M75.1275 10.0259H81.2415V12.5641H71.9504V0H75.1275V10.0259Z" fill="white"/>
<path d="M94.0662 12.5641H90.9377L90.1246 9.72766H86.1299L85.2991 12.5641H82.2412L86.342 0H89.9832L94.0662 12.5641ZM86.6955 7.50039H89.559L88.1272 2.42398L86.6955 7.50039Z" fill="white"/>
</svg>
